<svg width="53" height="26" viewBox="0 0 53 26" fill="none" xmlns="http://www.w3.org/2000/svg">
<g clip-path="url(#clip0_859_64149)">
<g clip-path="url(#clip1_859_64149)">
<path d="M29.568 21.3772H26.9791V19.9037H29.2137V17.7939C29.2137 17.2682 28.7913 16.8462 28.2804 16.8462H25.7051V17.7524H27.9397V19.0045H25.7051V21.3357C25.7051 21.8614 26.1207 22.2834 26.6384 22.2834H29.568V21.3772Z" fill="#F47725"/>
<path d="M28.6959 24.3793V22.7537H27.4219V24.3309C27.4219 24.8566 27.8443 25.2786 28.3552 25.2786H33.3968V24.3724H28.6959V24.3793Z" fill="#F47725"/>
<path d="M33.2063 16.8462H31.9663V22.8506H33.2063V16.8462Z" fill="#F47725"/>
<path d="M31.4554 16.8462H30.2087V19.0114H29.541V19.9107H30.2087V22.8506H31.4554V16.8462Z" fill="#F47725"/>
<path d="M51.3492 19.1635V16.853H50.0752V25.2924H50.409C50.9268 25.2924 51.3492 24.8705 51.3492 24.3447V20.0697H52.3439V19.1635H51.3492Z" fill="#F47725"/>
<path d="M44.1749 17.7594H47.2884V19.1706H44.1749V20.0768H47.2407C47.0295 21.5225 46.0416 22.4633 44.8902 22.4633H43.7593V23.3695H44.9175C46.9818 23.3695 48.5556 21.7093 48.5556 19.5856V16.8601H44.1749V17.7594Z" fill="#F47725"/>
<path d="M41.1023 16.853V19.1635H40.0327V20.0697H41.1023V25.2924H41.443C41.9608 25.2924 42.3764 24.8705 42.3764 24.3447V16.853H41.1023Z" fill="#F47725"/>
<path d="M34.9028 17.8007V21.9028C34.9028 22.4216 35.3252 22.8505 35.8362 22.8505H39.9512V21.9513H36.1768V20.0697H39.2699V19.1635H36.1768V17.7523H39.9512V16.853H35.8362C35.3252 16.853 34.9028 17.2819 34.9028 17.8007Z" fill="#F47725"/>
<path d="M4.62598 18.8524C3.75392 18.4373 3.03857 18.0983 3.03857 17.4204C3.03857 16.9016 3.44734 16.5281 4.25127 16.5281C4.54422 16.5281 4.78949 16.5626 5.04157 16.6111C5.17101 16.6318 5.31409 16.6526 5.42991 16.6526C6.13164 16.6526 6.5336 16.2237 6.7993 15.4143L6.90831 15.0823C6.79249 15.0339 5.64111 14.522 4.13545 14.522C1.74411 14.522 0.483718 16.0784 0.483718 17.6971C0.483718 18.5134 0.735797 19.1014 1.13095 19.5649C1.64192 20.1667 2.36409 20.5541 3.03857 20.8861C4.02644 21.3773 4.91212 21.7439 4.91212 22.4702C4.91212 23.1136 4.25808 23.4802 3.37921 23.4802C2.17332 23.4802 1.12413 22.7815 0.987875 22.6985L0 24.5801C0.177136 24.6838 1.44434 25.5001 3.54272 25.5001C5.77737 25.5001 7.46697 24.1996 7.46697 22.2004C7.46697 20.2013 5.9 19.468 4.62598 18.8524Z" fill="#EA002C"/>
<path d="M13.3603 19.7791L17.4072 14.7432H14.5185L11.2892 19.0943H11.2415V14.7432H8.86377V25.4169H9.00684C10.0288 25.4169 11.2551 24.9327 11.2551 23.1895V20.7338H11.3028L14.5934 25.2786H17.6184L13.3603 19.7791Z" fill="#EA002C"/>
<path d="M23.0479 10.7173L23.4976 10.7381C23.7088 10.7519 23.9404 10.7657 24.2606 10.7657C26.4612 10.7588 27.8987 9.96331 28.6822 9.52751C26.87 8.37228 24.2538 7.20321 21.0177 7.07178C20.8064 7.68744 19.1441 12.3844 19.0146 12.758C19.0351 12.7787 19.328 13.1108 19.6891 13.761C20.1933 14.5981 20.4794 15.3106 20.6702 15.8501C21.0858 15.1446 21.1539 14.0516 21.1948 12.7995C21.2357 11.7411 21.4128 10.7173 23.0479 10.7173Z" fill="#EA002C"/>
<path d="M31.428 11.8586C31.2849 11.6234 30.5492 10.8279 29.3296 9.9563L29.2956 9.97705C28.3281 10.5166 26.7203 11.4228 24.3358 11.4297C24.0224 11.4297 23.8384 11.4159 23.6749 11.409L23.2389 11.3951C22.1147 11.3951 21.8899 11.8863 21.849 12.834V13.0899L21.8286 13.5673C21.7877 14.6118 21.6515 15.7947 20.9838 16.6179L20.9565 16.6525C20.9838 16.7217 21.011 16.7839 21.0383 16.8254C21.0996 16.9292 21.1746 16.9707 21.2699 16.9707C21.3313 16.9707 21.4062 16.9499 21.4811 16.9153C21.6787 16.8254 29.5272 13.1176 30.7058 12.5642C30.8762 12.4812 31.2032 12.3359 31.3122 12.2668C31.428 12.2045 31.4757 12.1077 31.4757 12.0108C31.4757 11.9624 31.4621 11.907 31.428 11.8586Z" fill="#F47725"/>
<path d="M17.6385 3.36377L17.5704 3.3776C16.7937 3.52287 15.5537 4.25613 15.5606 5.59122C15.5606 6.15154 15.7786 6.61501 16.0034 7.10616C16.2623 7.6734 16.5621 8.31673 16.5621 9.20218C16.5689 10.5442 15.8058 11.312 15.2744 11.6925C15.5197 11.6787 15.7786 11.6648 16.0647 11.6648C16.8005 11.6579 17.2434 11.734 17.2706 11.734L21.0245 7.05082C20.0026 5.50821 18.8171 4.29764 17.6385 3.36377Z" fill="#EA002C"/>
<path d="M14.5183 11.4643C15.2065 11.0631 15.8809 10.3644 15.8741 9.19535C15.8741 8.48976 15.6289 7.95711 15.37 7.39679C15.1179 6.84339 14.8522 6.26923 14.8522 5.52905C14.8454 3.9311 16.1194 3.101 16.9233 2.85196C14.3821 1.06724 12.0044 0.5 11.5615 0.5C11.4116 0.5 11.2754 0.603763 11.2754 0.811289C11.2754 0.935805 11.3231 1.2886 11.3435 1.48229C11.4798 2.80354 12.42 11.5335 12.4472 11.7548C12.4745 11.9762 12.5698 12.1076 12.7606 12.1007C12.7879 12.1007 12.8287 12.1007 12.8628 12.0938C12.9991 12.08 13.2716 12.0385 13.585 11.9139C13.9665 11.7756 14.2186 11.6442 14.5183 11.4643Z" fill="#F47725"/>
</g>
</g>
<defs>
<clipPath id="clip0_859_64149">
<rect width="52.3438" height="25" fill="white" transform="translate(0 0.5)"/>
</clipPath>
<clipPath id="clip1_859_64149">
<rect width="52.3438" height="25" fill="white" transform="translate(0 0.5)"/>
</clipPath>
</defs>
</svg>
